<?xml version="1.0" standalone="no"?>
<!DOCTYPE svg PUBLIC "-//W3C//DTD SVG 20010904//EN"
 "http://www.w3.org/TR/2001/REC-SVG-20010904/DTD/svg10.dtd">
<svg version="1.0" xmlns="http://www.w3.org/2000/svg"
 width="225.000000pt" height="225.000000pt" viewBox="0 0 225.000000 225.000000"
 preserveAspectRatio="xMidYMid meet">

<g transform="translate(0.000000,225.000000) scale(0.100000,-0.100000)"
fill="#000000" stroke="none">
<path d="M373 1452 l-43 -3 0 -69 0 -69 89 -3 89 -3 -89 -104 -89 -105 0 -68
0 -68 190 0 190 0 0 70 0 70 -84 0 c-47 0 -87 3 -89 8 -3 4 35 52 83 107 l89
100 0 73 1 73 -147 -3 c-82 -1 -167 -4 -190 -6z"/>
<path d="M750 1210 l0 -250 70 0 70 0 0 250 0 250 -70 0 -70 0 0 -250z"/>
<path d="M1052 1439 c-165 -82 -176 -316 -19 -413 38 -23 62 -30 122 -34 81
-5 107 -20 85 -47 -10 -12 -41 -15 -161 -15 l-149 0 0 -70 0 -70 163 0 c152 0
167 2 207 23 82 43 112 145 69 233 -19 41 -19 44 -3 75 60 116 1 273 -123 324
-52 22 -139 19 -191 -6z m148 -134 c34 -18 55 -71 41 -106 -24 -63 -99 -83
-145 -40 -47 44 -41 117 13 146 34 18 55 18 91 0z"/>
<path d="M1552 1434 c-199 -99 -182 -393 28 -468 124 -45 262 11 316 129 47
99 24 224 -53 297 -75 71 -197 89 -291 42z m168 -129 c80 -41 78 -160 -4 -199
-44 -21 -64 -20 -104 4 -44 27 -67 80 -52 124 24 73 95 105 160 71z"/>
</g>
</svg>
